<?xml version="1.0" standalone="no"?>
<!DOCTYPE svg PUBLIC "-//W3C//DTD SVG 20010904//EN"
 "http://www.w3.org/TR/2001/REC-SVG-20010904/DTD/svg10.dtd">
<svg version="1.0" xmlns="http://www.w3.org/2000/svg"
 width="1000.000000pt" height="900.000000pt" viewBox="0 0 524.000000 363.000000"
 preserveAspectRatio="xMidYMid meet">

<g transform="translate(0.000000,363.000000) scale(0.100000,-0.100000)"
fill="#000000" stroke="none">
<path d="M1466 3222 c-262 -135 -489 -363 -611 -617 -65 -135 -100 -265 -131
-481 -4 -28 -9 -32 -42 -38 -21 -3 -82 -19 -134 -35 -154 -47 -254 -104 -283
-161 -63 -122 76 -221 401 -284 l118 -23 36 -94 c142 -373 402 -684 753 -901
339 -211 706 -308 1112 -295 233 7 388 38 617 121 375 135 724 414 947 756 50
76 141 262 167 340 10 30 23 60 28 66 6 6 54 19 106 28 334 58 491 178 402
304 -42 58 -262 156 -401 178 -31 5 -42 12 -45 28 -3 11 -12 68 -21 126 -64
419 -333 781 -731 985 -92 47 -112 53 -132 33 -25 -25 -11 -47 69 -103 207
-145 356 -357 415 -590 20 -82 25 -124 25 -237 1 -185 2 -182 -75 -174 -33 3
-135 13 -227 21 l-165 16 -70 65 c-179 168 -445 302 -716 360 -118 26 -409 26
-528 0 -270 -58 -534 -191 -716 -360 l-71 -65 -164 -16 c-90 -9 -194 -19 -230
-22 l-66 -6 -6 54 c-35 285 64 584 264 803 48 52 159 143 232 189 29 18 35 45
15 65 -20 20 -43 14 -142 -36z m-195 -219 c-124 -161 -190 -302 -227 -483 -25
-127 -15 -361 21 -490 30 -105 93 -246 148 -333 20 -32 37 -60 37 -62 0 -6
-177 -4 -310 4 l-105 6 -18 85 c-26 126 -33 371 -13 492 49 296 191 554 419
757 64 57 79 64 48 24z m2824 -114 c237 -247 358 -580 341 -934 -5 -109 -34
-296 -47 -310 -6 -5 -409 -19 -409 -13 0 3 22 42 50 87 57 96 120 252 146 366
15 62 19 117 18 245 0 146 -3 176 -27 265 -33 121 -98 255 -172 353 -30 40
-55 76 -55 78 0 12 80 -59 155 -137z m-1625 -325 c0 -3 -11 -20 -26 -36 -31
-38 -65 -104 -90 -178 -28 -83 -27 -287 3 -392 26 -87 68 -166 121 -222 l37
-38 -60 6 c-318 35 -668 172 -840 328 -49 45 -49 45 -32 71 9 14 42 51 72 82
165 166 441 310 698 364 103 22 117 24 117 15z m400 -14 c268 -55 539 -198
709 -375 45 -47 81 -89 81 -94 0 -12 -95 -92 -160 -133 -175 -112 -415 -198
-652 -233 -138 -21 -136 -22 -88 32 89 101 134 240 134 413 0 162 -31 267
-105 361 -29 37 -35 49 -23 49 3 0 50 -9 104 -20z m-191 -21 c47 -26 93 -89
121 -164 32 -85 39 -257 15 -358 -30 -124 -88 -220 -158 -262 -40 -24 -41 -24
-77 -5 -110 56 -185 230 -183 430 1 164 53 295 141 351 54 34 91 37 141 8z
m-1179 -434 c-9 -23 -5 -32 38 -77 200 -215 680 -387 1077 -388 376 0 830 158
1057 368 55 52 60 59 54 90 l-5 34 52 -6 c29 -3 108 -11 177 -17 69 -7 133
-15 142 -18 16 -6 14 -14 -12 -93 -35 -104 -85 -206 -147 -299 -46 -69 -46
-69 -92 -69 -46 0 -175 -5 -867 -36 -329 -14 -393 -14 -715 0 -560 25 -831 36
-875 36 -39 0 -43 3 -83 59 -55 80 -134 240 -160 326 -11 38 -18 71 -16 73 6
6 249 33 357 40 26 2 27 0 18 -23z m-776 -160 c3 -53 13 -130 21 -173 8 -42
15 -83 15 -89 0 -18 -31 -16 -154 12 -127 29 -237 76 -272 118 -24 28 -24 30
-8 56 27 40 53 58 131 91 57 24 222 75 254 79 3 1 9 -42 13 -94z m3900 65
c174 -49 286 -114 286 -166 0 -59 -208 -148 -399 -171 -49 -6 -54 -5 -48 12
16 40 37 193 37 265 0 64 4 90 15 90 1 0 50 -14 109 -30z m-3243 -523 c175
-188 424 -348 674 -432 357 -121 744 -122 1105 -4 259 85 526 255 702 449 l63
70 218 7 c121 5 220 6 222 2 12 -18 -115 -280 -188 -389 -316 -472 -851 -780
-1421 -819 -445 -30 -833 73 -1206 320 -167 110 -382 323 -488 482 -90 134
-211 384 -198 406 2 3 102 2 222 -2 l219 -8 76 -82z m534 58 c641 -29 710 -31
865 -24 544 25 952 40 993 37 l47 -3 -42 -45 c-204 -217 -509 -380 -844 -452
-94 -20 -137 -23 -319 -23 -231 0 -329 14 -520 76 -127 40 -352 155 -456 233
-91 68 -229 192 -229 207 0 13 118 11 505 -6z"/>
</g>
</svg>
